<?xml version="1.0" standalone="no"?>
<!DOCTYPE svg PUBLIC "-//W3C//DTD SVG 20010904//EN"
 "http://www.w3.org/TR/2001/REC-SVG-20010904/DTD/svg10.dtd">
<svg version="1.0" xmlns="http://www.w3.org/2000/svg"
 width="100.000000pt" height="100.000000pt" viewBox="0 0 100.000000 100.000000"
 preserveAspectRatio="xMidYMid meet">
<metadata>
Created by potrace 1.11, written by Peter Selinger 2001-2013
</metadata>
<g transform="translate(0.000000,100.000000) scale(0.100000,-0.100000)"
fill="#000000" stroke="none">
<path d="M0 500 l0 -500 500 0 500 0 0 500 0 500 -500 0 -500 0 0 -500z m741
331 c20 -20 29 -40 29 -61 0 -62 -65 -150 -111 -150 -26 0 -24 27 5 64 35 46
58 95 50 108 -14 22 -99 1 -170 -42 -101 -62 -141 -98 -180 -159 -58 -93 -49
-117 75 -200 100 -67 128 -97 137 -148 9 -47 -17 -80 -81 -105 -97 -38 -194
-13 -239 64 -15 25 -16 32 -5 39 10 6 19 2 31 -11 26 -32 86 -53 133 -46 52 8
105 40 105 65 0 31 -39 70 -99 100 -71 36 -137 107 -147 156 -10 56 19 117 93
196 36 38 70 69 75 69 6 0 23 9 39 21 48 34 141 68 187 69 35 0 49 -6 73 -29z"/>
</g>
</svg>
